<?xml version="1.0" standalone="no"?>
<!DOCTYPE svg PUBLIC "-//W3C//DTD SVG 20010904//EN"
 "http://www.w3.org/TR/2001/REC-SVG-20010904/DTD/svg10.dtd">
<svg version="1.0" xmlns="http://www.w3.org/2000/svg"
 width="752.000000pt" height="1280.000000pt" viewBox="0 0 752.000000 1280.000000"
 preserveAspectRatio="xMidYMid meet">
<g transform="translate(0.000000,1280.000000) scale(0.100000,-0.100000)"
fill="#000000" stroke="none">
<path d="M3620 12797 c-3 -3 -66 -10 -140 -16 -916 -77 -1752 -460 -2380
-1090 -585 -588 -968 -1387 -1064 -2221 -43 -373 -44 -458 -11 -780 120 -1183
753 -2225 1719 -2827 139 -87 473 -253 646 -321 138 -53 240 -88 445 -149 l60
-18 0 -540 0 -540 -1342 -3 -1343 -2 -5 -23 c-3 -12 -4 -393 -3 -847 l3 -825
1345 -5 c740 -3 1346 -6 1348 -8 1 -1 2 -582 2 -1292 l0 -1290 855 0 855 0 0
1289 c0 1166 2 1289 16 1295 9 3 614 6 1345 6 l1329 0 -2 847 -3 848 -1342 3
-1343 2 0 540 0 540 23 10 c12 5 91 27 174 50 720 192 1379 636 1893 1274 435
540 699 1165 779 1845 43 366 50 510 32 667 -6 43 -15 133 -21 199 -44 461
-189 939 -417 1375 -347 663 -823 1153 -1470 1513 -563 313 -1153 473 -1813
494 -91 3 -167 3 -170 0z m419 -1712 c218 -31 431 -99 656 -210 345 -169 591
-381 782 -672 365 -556 457 -1231 251 -1851 -193 -582 -713 -1104 -1292 -1298
-240 -79 -465 -110 -756 -101 -532 15 -967 197 -1350 563 -380 363 -590 791
-639 1298 -56 575 134 1171 514 1608 288 332 772 586 1264 663 119 18 440 18
570 0z"/>
</g>
</svg>
